<svg xmlns="http://www.w3.org/2000/svg" xmlns:xlink="http://www.w3.org/1999/xlink" viewBox="0 0 1113.18 965.62">
    <defs>
        <linearGradient id="home-linear-gradient" x1="207.99" y1="692.53" x2="67.26" y2="665.17" gradientTransform="matrix(1, 0, 0, -1, 0, 968)" gradientUnits="userSpaceOnUse">
            <stop offset="0.06" stop-color="#fff"></stop>
            <stop offset="1" stop-color="#e2e2e2"></stop>
        </linearGradient>
        <linearGradient id="home-linear-gradient-2" x1="14.7" y1="715.84" x2="249.6" y2="715.84" gradientTransform="matrix(1, 0, 0, -1, 0, 968)" gradientUnits="userSpaceOnUse">
            <stop offset="0" stop-color="#06ff93"></stop>
            <stop offset="0.25" stop-color="#13caff"></stop>
            <stop offset="0.5" stop-color="#06ff93"></stop>
            <stop offset="0.75" stop-color="#13caff"></stop>
            <stop offset="1" stop-color="#06ff93"></stop>
        </linearGradient>
        <linearGradient id="home-linear-gradient-3" x1="203.81" y1="766.29" x2="51.73" y2="736.73" xlink:href="#home-linear-gradient"></linearGradient>
        <linearGradient id="home-linear-gradient-4" x1="995.04" y1="311.32" x2="804.89" y2="-2.87" gradientTransform="matrix(0.95, 0.31, 0.31, -0.95, -77.06, 784.99)" gradientUnits="userSpaceOnUse">
            <stop offset="0.06" stop-color="#fff"></stop>
            <stop offset="0.26" stop-color="#f5f5f5"></stop>
            <stop offset="0.66" stop-color="#e7e7e7"></stop>
            <stop offset="1" stop-color="#e2e2e2"></stop>
        </linearGradient>
        <linearGradient id="home-linear-gradient-5" x1="449.16" y1="249.45" x2="1360.95" y2="249.45" gradientTransform="matrix(0.95, 0.31, 0.31, -0.95, -77.06, 784.99)" xlink:href="#home-linear-gradient-2"></linearGradient>
        <linearGradient id="home-linear-gradient-6" x1="1101.42" y1="518.94" x2="699.57" y2="133.34" gradientTransform="matrix(0.95, 0.31, 0.31, -0.95, -77.06, 784.99)" gradientUnits="userSpaceOnUse">
            <stop offset="0.06" stop-color="#f5f5f5"></stop>
            <stop offset="0.18" stop-color="#f0f0f0"></stop>
            <stop offset="0.56" stop-color="#e5e5e5"></stop>
            <stop offset="1" stop-color="#e2e2e2"></stop>
        </linearGradient>
        <linearGradient id="home-linear-gradient-7" x1="825.22" y1="504.32" x2="825.22" y2="428.57" gradientUnits="userSpaceOnUse">
            <stop offset="0" stop-color="#e3e4e5"></stop>
            <stop offset="0.68" stop-color="#f1f1f1"></stop>
            <stop offset="1" stop-color="#f7f7f7"></stop>
        </linearGradient>
        <linearGradient id="home-linear-gradient-8" x1="792.69" y1="452.26" x2="799.74" y2="452.26" gradientTransform="matrix(0.96, 0, 0, 1, 34.87, -0.09)" gradientUnits="userSpaceOnUse">
            <stop offset="0" stop-color="#29e1ff"></stop>
            <stop offset="1" stop-color="#37f4d4"></stop>
        </linearGradient>
        <linearGradient id="home-linear-gradient-9" x1="856.15" y1="452.02" x2="862.42" y2="452.02" gradientUnits="userSpaceOnUse">
            <stop offset="0" stop-color="#29e1ff"></stop>
            <stop offset="1" stop-color="#08adff"></stop>
        </linearGradient>
        <linearGradient id="home-linear-gradient-10" x1="804.33" y1="416.11" x2="841.59" y2="416.11" gradientUnits="userSpaceOnUse">
            <stop offset="0" stop-color="#00dfe9"></stop>
            <stop offset="1" stop-color="#08adff"></stop>
        </linearGradient>
        <linearGradient id="home-linear-gradient-11" x1="127.58" y1="174.44" x2="127.58" y2="98.69" xlink:href="#home-linear-gradient-7"></linearGradient>
        <linearGradient id="home-linear-gradient-12" x1="62.76" y1="122.47" x2="69.81" y2="122.47" xlink:href="#home-linear-gradient-8"></linearGradient>
        <linearGradient id="home-linear-gradient-13" x1="158.51" y1="122.15" x2="164.79" y2="122.15" xlink:href="#home-linear-gradient-9"></linearGradient>
        <linearGradient id="home-linear-gradient-14" x1="106.69" y1="86.23" x2="143.95" y2="86.23" xlink:href="#home-linear-gradient-10"></linearGradient>
    </defs>
    <g id="pasta_big">
        <path d="M1014.54,388.26l6.4,1.72a5.1,5.1,0,0,1,3.61,6.24h0l-1.72,6.4a5.1,5.1,0,0,1-6.24,3.61h0l-6.4-1.72a5.1,5.1,0,0,1-3.61-6.24h0l1.72-6.4a5.1,5.1,0,0,1,6.24-3.61Z" style="fill: none; stroke: rgb(0, 140, 255); stroke-miterlimit: 10; stroke-width: 1.06337px; opacity: 0.2875;" data-svg-origin="1006.4080810546875 388.0880432128906" transform="matrix(1,0,0,1,71.24999999999986,71.24999999999986)"></path>
        <circle cx="558.65" cy="622.39" r="16.42" style="fill: none; stroke: rgb(39, 122, 255); stroke-miterlimit: 10; stroke-opacity: 0.4; stroke-width: 3px; opacity: 0.2125;" data-svg-origin="542.2300415039062 605.9700317382812" transform="matrix(1,0,0,1,-78.75000000000014,-78.75000000000014)"></circle>
        <path d="M431,621.81l-24.41.5,22.15,21.25Z" style="fill: rgb(167, 252, 252); opacity: 0.7875;" data-svg-origin="406.5899963378906 621.8099975585938" transform="matrix(1,0,0,1,21.249999999999858,21.249999999999858)"></path>
        <path d="M937.49,461.48A3.49,3.49,0,1,1,934,465h0a3.49,3.49,0,0,1,3.46-3.52Z" style="fill: rgb(211, 255, 240); opacity: 0.2875;" data-svg-origin="933.9998779296875 461.47998046875" transform="matrix(1,0,0,1,71.24999999999986,71.24999999999986)"></path>
        <path d="M556.81,456.49A10.55,10.55,0,1,1,546.26,467v0a10.55,10.55,0,0,1,10.55-10.55Z" style="fill: none; stroke: rgb(0, 211, 216); stroke-width: 2px; opacity: 0.2875;" data-svg-origin="546.2599487304688 456.45001220703125" transform="matrix(1,0,0,1,71.24999999999986,71.24999999999986)"></path>
        <path d="M772.77,389.32,801.49,397l-7.68,28.73L765.09,418Z" style="fill: none; opacity: 0.2875;" data-svg-origin="765.0900268554688 389.32000732421875" transform="matrix(1,0,0,1,71.24999999999986,71.24999999999986)"></path>
        <path d="M762.15,348.55l14.19,3.79-3.79,14.19-14.19-3.79Z" style="fill: none; stroke: rgb(62, 250, 255); stroke-width: 1.42131px; opacity: 0.2875;" data-svg-origin="758.3600463867188 348.54998779296875" transform="matrix(1,0,0,1,71.24999999999986,71.24999999999986)"></path>
        <path d="M707.47,478a4.4,4.4,0,1,1-4.4,4.4h0a4.4,4.4,0,0,1,4.4-4.4Z" style="fill: rgb(34, 255, 187); opacity: 0.2875;" data-svg-origin="703.0699462890625 478" transform="matrix(1,0,0,1,71.24999999999986,71.24999999999986)"></path>
    </g>
    <g id="planet">
        <g id="planet_small" data-name="Planet small">
            <path d="M206.36,267.07a77.48,77.48,0,0,1-145,5.43c19.89,2.22,44.71,3.07,71.57,2.13C160.8,273.65,186.34,270.89,206.36,267.07Z" style="fill: url(#home-linear-gradient)"></path>
            <path class="ring" d="M249.6,248c.25,7.09-16.64,14-43.24,19.08-20,3.82-45.56,6.58-73.42,7.56-26.86.94-51.68.09-71.57-2.13-28.14-3.12-46.41-9-46.67-16.24-.24-6.87,15.61-13.58,40.78-18.6,20.38-4.06,46.86-7,75.88-8,30-1.05,57.42.14,78.3,2.95C234,235.84,249.36,241.31,249.6,248Z" style="fill: url(&quot;#home-linear-gradient-2&quot;); transform-origin: 0px 0px 0px;" data-svg-origin="132.1500301361084 252.1553192138672" transform="matrix(0.95551,0,0,0.95551,5.8792997782428955,11.218285087108598)"></path>
            <path d="M209.73,252.23c-4.47,1-46.73,10.45-94.67,9.85-29.54-.36-55.22-2.76-57.9-3a77.27,77.27,0,0,1,58.11-91.89l.32-.08a77.5,77.5,0,0,1,94.14,85.14Z" style="fill: url(#home-linear-gradient-3)"></path>
            <path d="M184.62,228.14a5.5,5.5,0,1,1-5.5,5.5,5.5,5.5,0,0,1,5.5-5.5Zm-79-39a7.5,7.5,0,1,1-7.5,7.5h0a7.5,7.5,0,0,1,7.5-7.5Zm2,97a4.5,4.5,0,1,1-4.5,4.5,4.5,4.5,0,0,1,4.5-4.5Zm11.5-57a11,11,0,1,1-11,11h0a11,11,0,0,1,11-11h0Z" style="fill: #ececec"></path>
            <path d="M110.84,287.51h-.18a4.49,4.49,0,0,0-3.22,7.63,4.49,4.49,0,1,1,3.4-7.61Z" style="fill: #c4c4c4"></path>
            <path d="M182.16,235a5.5,5.5,0,0,0,1.87,4.12,5.5,5.5,0,1,1,4.23-9.59h-.6A5.5,5.5,0,0,0,182.16,235Z" style="fill: #c4c4c4"></path>
            <path d="M111.16,241.49a11,11,0,0,0,5.07,9.25,11,11,0,1,1,8.82-19.85,10.62,10.62,0,0,0-2.89-.4A11,11,0,0,0,111.16,241.49Z" style="fill: #c4c4c4"></path>
            <path d="M101.16,198a7.5,7.5,0,0,0,3,6,7.5,7.5,0,1,1,5.9-13.37,7.49,7.49,0,0,0-8.93,7.36Z" style="fill: #c4c4c4"></path>
        </g>
        <g id="pasta_small">
            <path d="M254.12,145.14a4,4,0,1,1-4,4A4,4,0,0,1,254.12,145.14Z" style="fill: rgb(19, 202, 255); opacity: 0.7875;" data-svg-origin="250.1199951171875 145.13999938964844" transform="matrix(1,0,0,1,21.249999999999858,21.249999999999858)"></path>
            <circle cx="176.6" cy="335.64" r="3.5" style="fill: rgb(19, 202, 255); opacity: 0.2875;" data-svg-origin="173.10000610351562 332.1400146484375" transform="matrix(1,0,0,1,71.24999999999986,71.24999999999986)"></circle>
            <circle id="Ellipse_989_copy" data-name="Ellipse 989 copy" cx="81.68" cy="155.09" r="3.5" style="fill: rgb(6, 255, 147); opacity: 0.2875;" data-svg-origin="78.18000030517578 151.58999633789062" transform="matrix(1,0,0,1,71.24999999999986,71.24999999999986)"></circle>
        </g>
    </g>
    <g id="planet_big" data-name="planet big">
        <path d="M1117.39,967.86a300.45,300.45,0,0,1-268.56,121.9c-148-12.84-261.7-130.84-273.68-274,70.85,31.78,161.57,64.4,261.95,92.83C941.22,938.06,1038.87,958.19,1117.39,967.86Z" style="fill: url(#home-linear-gradient-4)"></path>
        <path class="ring" d="M1299.84,948.71c-7.5,26.5-78.14,32-182.45,19.15-78.52-9.66-176.18-29.8-280.3-59.27C736.72,880.16,646,847.54,575.15,815.71c-100.28-45-160.86-88.23-153.17-115.45,7.27-25.67,73.81-31.64,172.79-20.3,80.13,9.2,181.5,29.72,290,60.42,112,31.73,212,68.72,285.85,103.9C1256.44,885.22,1306.89,923.74,1299.84,948.71Z" style="fill: url(&quot;#home-linear-gradient-5&quot;); transform-origin: 0px 0px 0px;" data-svg-origin="860.9092712402344 824.4844055175781" transform="matrix(1.18015,0,0,1.18015,-155.0971097602843,-148.5349880760192)"></path>
        <path d="M1147.47,917c-17.74-1.5-185.1-16.89-361.54-76-108.73-36.44-200.78-75.81-210.38-80C591,597.54,735.39,476.62,899.44,490.49c.44,0,.87.08,1.28.08,165.45,14.32,288,160.08,273.65,325.53A299.72,299.72,0,0,1,1147.47,917Z" style="fill: url(#home-linear-gradient-6)"></path>
        <path d="M732.27,696.64a41.21,41.21,0,1,1-34.4,47v0h0A41.21,41.21,0,0,1,732.27,696.64ZM972.18,566.22a60.43,60.43,0,1,1-50.47,69,60.43,60.43,0,0,1,50.47-69Z" style="fill: #cacaca"></path>
        <path d="M939.34,640a60.32,60.32,0,0,0,35.3,46,60.38,60.38,0,1,1,31.2-115.19,58.32,58.32,0,0,0-16,.26A60.44,60.44,0,0,0,939.34,640Z" style="fill: #a8a8a8"></path>
        <path d="M715.5,748.44A41.22,41.22,0,0,0,737,778.52,41.19,41.19,0,1,1,757.79,701a41.14,41.14,0,0,0-42.3,47.47Z" style="fill: #a8a8a8"></path>
    </g>
    <g id="astronaut">
        <g id="person">
            <path id="Rounded_Rectangle_632" data-name="Rounded Rectangle 632" d="M791.22,445.57A290.86,290.86,0,0,0,826.44,448a300.12,300.12,0,0,0,35.22-2.43,6.07,6.07,0,0,1,0,12.14,292.87,292.87,0,0,1-35.22,2.43,297.93,297.93,0,0,1-35.22-2.43,6.07,6.07,0,1,1,0-12.14Z" style="fill: #e8e8e8"></path>
            <path id="Rounded_Rectangle_630" data-name="Rounded Rectangle 630" d="M820.37,428.57h9.71c10.06,0,14.25,12.1,14.25,12.1l4,45c0,10.06-5,20.12-10.79,18.51s-3.15-17.38-12.28-16.65-5.9,15.21-12.56,16.53-10.51-8.34-10.51-18.39L804.33,447c0-10.06,6-18.41,16-18.41Z" style="fill: url(#home-linear-gradient-7)"></path>
            <circle cx="825.22" cy="422.5" r="27.93" style="fill: #e2e8ea"></circle>
            <path id="Rounded_Rectangle_632-2" data-name="Rounded Rectangle 632-2" d="M794.94,445.83l3.5.42c.48.06.84.67.8,1.35h0s-1.2,1.39-1.4,4.67a11.19,11.19,0,0,0,.81,5.3c0,.68-.46,1.19-.94,1.14h0l-3.5-.42c-.48-.06-1.69-2.67-1.69-6.26s1.94-6.25,2.43-6.2Z" style="fill: url(#home-linear-gradient-8)"></path>
            <path id="Rounded_Rectangle_632_copy" data-name="Rounded Rectangle 632 copy" d="M857.78,445.77a2.13,2.13,0,0,1,2.21,1.17,17.43,17.43,0,0,1,2,4.32,32.28,32.28,0,0,1,.44,5.68c.17.69-.55,1.29-1.61,1.34a2.13,2.13,0,0,1-2.21-1.17,30.84,30.84,0,0,0-.32-5.08,15.46,15.46,0,0,0-2.09-4.92C856,446.41,856.72,445.81,857.78,445.77Z" style="fill: url(#home-linear-gradient-9)"></path>
            <path d="M804.58,425.32c.5,1.43,7.9,2.1,17.25,2.43,10,.35,19-.37,19.67-2s-2.21-19.16-16.35-21.2a17.6,17.6,0,0,0-9.34,1.39,19.28,19.28,0,0,0-6.81,4.76C803.82,416.62,804.08,423.89,804.58,425.32Z" style="fill: url(#home-linear-gradient-10)"></path>
            <path d="M809,416.86c-.69-.39,1.8-6,6-6.8,3-.58.41,3.73-1.37,6.33a2.81,2.81,0,0,1-3.43,1Z" style="fill: #fff"></path>
        </g>
        <g id="message">
            <rect id="Rounded_Rectangle_619" data-name="Rounded Rectangle 619" x="874.08" y="360.17" width="82.24" height="53.14" rx="12.65" ry="12.65" style="fill: #cedee3"></rect>
            <rect id="Rounded_Rectangle_619-2" data-name="Rounded Rectangle 619-2" x="874.08" y="360.17" width="82.24" height="53.14" rx="12.65" ry="12.65" style="fill: #cedee3"></rect>
            <rect id="Rounded_Rectangle_620" data-name="Rounded Rectangle 620" x="886.73" y="371.56" width="49.7" height="5.02" rx="2.5" ry="2.5" style="fill: #fff"></rect>
            <path id="Rounded_Rectangle_620_copy" data-name="Rounded Rectangle 620 copy" d="M889.2,383.39h54.52a2.47,2.47,0,0,1,2.47,2.47h0a2.47,2.47,0,0,1-2.47,2.47H889.2a2.47,2.47,0,0,1-2.47-2.47h0A2.47,2.47,0,0,1,889.2,383.39Z" style="fill: #fff"></path>
            <rect id="Rounded_Rectangle_620_copy_2" data-name="Rounded Rectangle 620 copy 2" x="886.73" y="395.67" width="34.12" height="4.98" rx="2.49" ry="2.49" style="fill: #fff"></rect>
        </g>
    </g>
</svg>