<svg xmlns="http://www.w3.org/2000/svg" xmlns:xlink="http://www.w3.org/1999/xlink"><defs id="SvgjsDefs1053"></defs><g id="SvgjsG1054" rel="mainfill" name="main_text" xmlns:name="mainText_mainfill" transform="translate(-1.800002098083496, -2.799999237060547)"><path fill="#1088e9" d="M9 10.8 l7.632 0 l7.2 7.2 l0 18 l-6.12 0 l0 -6.408 l-9.792 0 l0 6.408 l-6.12 0 l0 -18 z M7.92 20.555999999999997 l0 2.916 l9.792 0 l0 -2.916 l-4.896 -4.896 z M19.512 28.512 l0 0.36 l0.36 0 l0 -0.36 l-0.36 0 z M18.432 28.512 l0 0.36 l0.36 0 l0 -0.36 l-0.36 0 z M6.84 28.512 l0 0.36 l0.36 0 l0 -0.36 l-0.36 0 z M20.592 28.512 l0 0.36 l0.36 0 l0 -0.36 l-0.36 0 z M18.432 25.272 l0 0.36 l0.36 0 l0 -0.36 l-0.36 0 z M18.432 26.352 l0 0.36 l0.36 0 l0 -0.36 l-0.36 0 z M21.672 28.512 l0 0.36 l0.36 0 l0 -0.36 l-0.36 0 z M19.512 27.432000000000002 l0 0.36 l0.36 0 l0 -0.36 l-0.36 0 z M4.68 27.432000000000002 l0 0.36 l0.36 0 l0 -0.36 l-0.36 0 z M6.84 25.272 l0 0.36 l0.36 0 l0 -0.36 l-0.36 0 z M19.512 26.352 l0 0.36 l0.36 0 l0 -0.36 l-0.36 0 z M18.432 27.432000000000002 l0 0.36 l0.36 0 l0 -0.36 l-0.36 0 z M3.6 28.512 l0 0.36 l0.36 0 l0 -0.36 l-0.36 0 z M5.76 28.512 l0 0.36 l0.36 0 l0 -0.36 l-0.36 0 z M5.76 27.432000000000002 l0 0.36 l0.36 0 l0 -0.36 l-0.36 0 z M6.84 26.352 l0 0.36 l0.36 0 l0 -0.36 l-0.36 0 z M20.592 27.432000000000002 l0 0.36 l0.36 0 l0 -0.36 l-0.36 0 z M4.68 28.512 l0 0.36 l0.36 0 l0 -0.36 l-0.36 0 z M5.76 26.352 l0 0.36 l0.36 0 l0 -0.36 l-0.36 0 z M6.84 27.432000000000002 l0 0.36 l0.36 0 l0 -0.36 l-0.36 0 z M13.32 13.608 l0.252 0.252 l0.252 -0.252 l-0.252 -0.252 z M12.564 14.399999999999999 l0.252 0.252 l0.252 -0.252 l-0.252 -0.252 z M14.076 12.852 l0.252 0.252 l0.252 -0.252 l-0.252 -0.252 z M10.26 12.096 l0.252 0.252 l0.252 -0.252 l-0.252 -0.252 z M11.052 12.852 l0.252 0.252 l0.252 -0.252 l-0.252 -0.252 z M14.868 12.096 l0.252 0.252 l0.252 -0.252 l-0.252 -0.252 z M12.564 12.852 l0.252 0.252 l0.252 -0.252 l-0.252 -0.252 z M11.808 12.096 l0.252 0.252 l0.252 -0.252 l-0.252 -0.252 z M11.808 13.608 l0.252 0.252 l0.252 -0.252 l-0.252 -0.252 z M13.32 12.096 l0.252 0.252 l0.252 -0.252 l-0.252 -0.252 z M27.432 36 l0 -6.12 l4.86 0 l0 -12.96 l-4.86 0 l0 -6.12 l15.84 0 l0 6.12 l-4.86 0 l0 12.96 l4.86 0 l0 6.12 l-15.84 0 z M34.092 14.760000000000002 l0 0.36 l0.36 0 l0 -0.36 l-0.36 0 z M33.012 15.84 l0 0.36 l0.36 0 l0 -0.36 l-0.36 0 z M36.251999999999995 15.84 l0 0.36 l0.36 0 l0 -0.36 l-0.36 0 z M34.092 15.84 l0 0.36 l0.36 0 l0 -0.36 l-0.36 0 z M33.012 14.760000000000002 l0 0.36 l0.36 0 l0 -0.36 l-0.36 0 z M33.012 13.68 l0 0.36 l0.36 0 l0 -0.36 l-0.36 0 z M33.012 12.600000000000001 l0 0.36 l0.36 0 l0 -0.36 l-0.36 0 z M34.092 13.68 l0 0.36 l0.36 0 l0 -0.36 l-0.36 0 z M35.172 14.760000000000002 l0 0.36 l0.36 0 l0 -0.36 l-0.36 0 z M35.172 15.84 l0 0.36 l0.36 0 l0 -0.36 l-0.36 0 z M63.324 26.208 l-1.08 0 l0 1.08 l-0.576 0 l8.172 8.172 l-0.504 0.54 l-7.632 0 l-8.712 -8.712 l0 8.712 l-6.12 0 l0 -25.2 l15.372 0 l0 1.08 l1.08 0 l0 1.08 l1.08 0 l0 1.08 l1.08 0 l0 1.08 l1.08 0 l0 1.08 l1.08 0 l0 5.688 l-1.08 0 l0 1.08 l-1.08 0 l0 1.08 l-1.08 0 l0 1.08 l-1.08 0 l0 1.08 z M52.992 16.92 l0 4.248 l8.532 0 l0 -4.248 l-8.532 0 z M62.244 25.128 l0 0.36 l0.36 0 l0 -0.36 l-0.36 0 z M62.244 21.887999999999998 l0 0.36 l0.36 0 l0 -0.36 l-0.36 0 z M62.244 24.048000000000002 l0 0.36 l0.36 0 l0 -0.36 l-0.36 0 z M62.244 13.68 l0 0.36 l0.36 0 l0 -0.36 l-0.36 0 z M65.484 21.887999999999998 l0 0.36 l0.36 0 l0 -0.36 l-0.36 0 z M62.244 14.760000000000002 l0 0.36 l0.36 0 l0 -0.36 l-0.36 0 z M63.324 13.68 l0 0.36 l0.36 0 l0 -0.36 l-0.36 0 z M64.404 22.968 l0 0.36 l0.36 0 l0 -0.36 l-0.36 0 z M62.244 15.84 l0 0.36 l0.36 0 l0 -0.36 l-0.36 0 z M64.404 21.887999999999998 l0 0.36 l0.36 0 l0 -0.36 l-0.36 0 z M62.244 22.968 l0 0.36 l0.36 0 l0 -0.36 l-0.36 0 z M63.324 14.760000000000002 l0 0.36 l0.36 0 l0 -0.36 l-0.36 0 z M63.324 21.887999999999998 l0 0.36 l0.36 0 l0 -0.36 l-0.36 0 z M62.244 12.600000000000001 l0 0.36 l0.36 0 l0 -0.36 l-0.36 0 z M63.324 22.968 l0 0.36 l0.36 0 l0 -0.36 l-0.36 0 z M64.404 14.760000000000002 l0 0.36 l0.36 0 l0 -0.36 l-0.36 0 z M63.324 24.048000000000002 l0 0.36 l0.36 0 l0 -0.36 l-0.36 0 z M65.484 15.84 l0 0.36 l0.36 0 l0 -0.36 l-0.36 0 z M64.404 15.84 l0 0.36 l0.36 0 l0 -0.36 l-0.36 0 z M63.324 15.84 l0 0.36 l0.36 0 l0 -0.36 l-0.36 0 z M91.332 15.120000000000001 l1.08 0 l0 1.08 l1.08 0 l0 14.4 l-1.08 0 l0 1.08 l-1.08 0 l0 1.08 l-1.08 0 l0 1.08 l-1.08 0 l0 1.08 l-1.08 0 l0 1.08 l-16.812 0 l0 -25.2 l16.812 0 l0 1.08 l1.08 0 l0 1.08 l1.08 0 l0 1.08 l1.08 0 l0 1.08 z M77.39999999999999 16.92 l0 12.96 l9.972 0 l0 -12.96 l-9.972 0 z M88.09199999999998 15.84 l0 0.36 l0.36 0 l0 -0.36 l-0.36 0 z M91.332 15.84 l0 0.36 l0.36 0 l0 -0.36 l-0.36 0 z M90.25199999999998 31.68 l0 0.36 l0.36 0 l0 -0.36 l-0.36 0 z M88.09199999999998 32.76 l0 0.36 l0.36 0 l0 -0.36 l-0.36 0 z M88.09199999999998 30.6 l0 0.36 l0.36 0 l0 -0.36 l-0.36 0 z M90.25199999999998 30.6 l0 0.36 l0.36 0 l0 -0.36 l-0.36 0 z M89.172 15.84 l0 0.36 l0.36 0 l0 -0.36 l-0.36 0 z M88.09199999999998 33.84 l0 0.36 l0.36 0 l0 -0.36 l-0.36 0 z M91.332 30.6 l0 0.36 l0.36 0 l0 -0.36 l-0.36 0 z M88.09199999999998 31.68 l0 0.36 l0.36 0 l0 -0.36 l-0.36 0 z M89.172 30.6 l0 0.36 l0.36 0 l0 -0.36 l-0.36 0 z M88.09199999999998 13.68 l0 0.36 l0.36 0 l0 -0.36 l-0.36 0 z M90.25199999999998 15.84 l0 0.36 l0.36 0 l0 -0.36 l-0.36 0 z M89.172 14.760000000000002 l0 0.36 l0.36 0 l0 -0.36 l-0.36 0 z M89.172 32.76 l0 0.36 l0.36 0 l0 -0.36 l-0.36 0 z M90.25199999999998 14.760000000000002 l0 0.36 l0.36 0 l0 -0.36 l-0.36 0 z M89.172 13.68 l0 0.36 l0.36 0 l0 -0.36 l-0.36 0 z M88.09199999999998 14.760000000000002 l0 0.36 l0.36 0 l0 -0.36 l-0.36 0 z M88.09199999999998 12.600000000000001 l0 0.36 l0.36 0 l0 -0.36 l-0.36 0 z M89.172 31.68 l0 0.36 l0.36 0 l0 -0.36 l-0.36 0 z"></path></g></svg>